<svg id="Layer_1" data-name="Layer 1" xmlns="http://www.w3.org/2000/svg" xmlns:xlink="http://www.w3.org/1999/xlink" viewBox="0 0 1827.26 330.12"><defs><style>.cls-1{fill:none;}.cls-2{clip-path:url(#clip-path);}.cls-3{fill:#020202;}</style><clipPath id="clip-path" transform="translate(-85.88 -835.29)"><rect class="cls-1" x="85.88" y="835.31" width="1827.26" height="330.23"/></clipPath></defs><g class="cls-2"><path d="M283.79,1035.89l59.65,121h-69.6l-53.77-109.37H147.33v109.37H85.88V835.29H234.54a115.2,115.2,0,0,1,33,4.91,104.55,104.55,0,0,1,54.22,38.4,109.58,109.58,0,0,1,21.69,63c.45,22.32-8.14,45-21.69,63A99.93,99.93,0,0,1,283.79,1035.89ZM147.33,990.75h86.75c12.21,0,27.57-7.14,37-19.64a46.56,46.56,0,0,0,9.95-29.49c-.45-11.62-4.08-23.22-11.75-31.71-8.68-9.84-22.6-17.43-35.25-17.43H147.33Z" transform="translate(-85.88 -835.29)"/><path d="M441.93,835.31V1157H380.52V835.31Z" transform="translate(-85.88 -835.29)"/><path d="M1294.58,1106.91H1161.73l-15.37,50h-63.25l99.4-321.65h91.72l99.4,321.65h-63.24Zm-17.64-57.19-49.25-157.24-48.35,157.24Z" transform="translate(-85.88 -835.29)"/><path d="M1473.51,835.31v260.88h140.07v60.75H1412V835.29Z" transform="translate(-85.88 -835.29)"/><path d="M1834.06,1106.91H1701.24l-15.38,50h-63.24L1722,835.29h91.72l99.4,321.65H1849.9Zm-17.61-57.19L1767.2,892.48l-48.35,157.24Z" transform="translate(-85.88 -835.29)"/><path d="M745.24,1044.57a85.43,85.43,0,0,0-19.39-27.87c-15.5-14.46-34.57-23.59-57.63-30.24L611.06,969.8c-17.36-5.25-34.71-11.84-43.9-21.44a39,39,0,0,1-11.09-27.62c0-15.78,9.76-31.57,24.84-39.89,8-4.29,20-7.33,32-8.9A142,142,0,0,1,634,870.77c15.9,0,21.69-28.9,4.93-33.55a18.63,18.63,0,0,0-4.93-.63c-20.38,0-49.14,2.62-70,13.15-26.15,12.69-46.11,40.31-46.11,69.69,0,19.3,7.55,41.19,23.52,55.75,16.83,14.88,38.1,22.78,59.38,29.36l58.56,17.15c16.42,4.29,29.71,11,39.9,21,.61.56,1.2,1.14,1.76,1.74a43.77,43.77,0,0,1,12.43,30.7,42,42,0,0,1-.15,4.29l38.19.26v-3.13A76.84,76.84,0,0,0,745.24,1044.57ZM633.65,1131.5H630.7c-27-.62-54.37-10-70.64-32.38a82.32,82.32,0,0,1-11.84-21,131.33,131.33,0,0,1-6.76-24.12l-36.38,9.52c.2.86.39,1.71.61,2.57,4.56,18.94,12.43,38.49,25.55,55.26,22.52,29.81,56.78,42.72,95.86,43.77h5.21c30.58,0,60.27-4.83,82.42-20.59a81.32,81.32,0,0,0,15.18-13.32l-93.26.11A15.82,15.82,0,0,1,633.65,1131.5Z" transform="translate(-85.88 -835.29)"/><path d="M831.24,1053.94l-36.35,9.57a166.2,166.2,0,0,0,4.45,16.14l17.35.13h.1a17.75,17.75,0,0,0,11-3.84,17.4,17.4,0,0,0,6.17-9.82C832.93,1062.16,832,1058.06,831.24,1053.94Zm184.35-37.26c-15.5-14.46-34.7-23.59-57.62-30.24l-57.2-16.66c-17.35-5.25-34.57-11.84-43.87-21.44a39,39,0,0,1-11.09-27.62c0-15.79,9.74-31.57,24.81-39.89a93,93,0,0,1,46.12-10.08,12.41,12.41,0,0,0,5.79-1.41c12.36-6.43,14-32.75-5.81-32.75-20.39,0-42.13,2.62-62.9,13.15a84.68,84.68,0,0,0-27.07,21,75.75,75.75,0,0,0-19,48.62c0,19.3,7.53,41.19,23.49,55.75,16.86,14.88,38.13,22.77,59.41,29.36l58.56,17.15c16.4,4.29,29.69,11,39.88,21a43.81,43.81,0,0,1,14.19,32.44,48.68,48.68,0,0,1-19.93,40.31c-11.54,8.3-29.17,13.6-46.33,15.46a122.87,122.87,0,0,1-27.11,0l-80.62.28c19.89,20.59,46.7,31,76.91,33.56,5.23.45,10.56.67,16,.67,30.58,0,60.3-4.83,82.42-20.59a86.18,86.18,0,0,0,26.69-29.84,85,85,0,0,0,10.18-38.54,80.94,80.94,0,0,0-6.65-32.53,81.75,81.75,0,0,0-19.18-27.23Zm-184.35,37.26-36.35,9.57a166.2,166.2,0,0,0,4.45,16.14l17.35.13h.1a17.75,17.75,0,0,0,11-3.84,17.4,17.4,0,0,0,6.17-9.82C832.93,1062.16,832,1058.06,831.24,1053.94Z" transform="translate(-85.88 -835.29)"/><path class="cls-3" d="M909.86,1130.75l-80.62.28a104,104,0,0,1-8.19-9.6,135.4,135.4,0,0,1-21.69-41.71l17.35.13h.1a17.79,17.79,0,0,0,11-3.84,17.38,17.38,0,0,0,6.17-9.82,92.23,92.23,0,0,0,15.82,32.89C864,1118.53,886.5,1128.16,909.86,1130.75Z" transform="translate(-85.88 -835.29)"/><path class="cls-3" d="M615.72,872.15a17.94,17.94,0,0,1-6.75-1.31,17.74,17.74,0,0,1-5.72-3.75,17.28,17.28,0,0,1-.08-24.63,17.78,17.78,0,0,1,12.44-5.14l301.47-2h.14a17.7,17.7,0,0,1,12,5.3,17.25,17.25,0,0,1,0,24.19,17.67,17.67,0,0,1-12,5.31l-301.48,2.14Z" transform="translate(-85.88 -835.29)"/><path class="cls-3" d="M953.63,1148a16.36,16.36,0,0,1-4.83,11.62,16.7,16.7,0,0,1-11.72,4.84H906.15l-275.66.93a16.63,16.63,0,0,1-12.81-6,16.39,16.39,0,0,1-3.76-10.35c0-9,7.35-17.64,16.53-17.69h6.33l93.26-.1,99.38-.32,80.61-.28h27.12v.9a16.71,16.71,0,0,1,11.68,4.86A16.31,16.31,0,0,1,953.63,1148Z" transform="translate(-85.88 -835.29)"/><path class="cls-3" d="M834.47,1062.56a17.71,17.71,0,0,1-.41,3.63,17.48,17.48,0,0,1-6.17,9.82,17.83,17.83,0,0,1-11,3.84h-.11l-17.35-.13-48-.3-38.19-.26-165.08-1.09-26-.17a17.78,17.78,0,0,1-10.15-3.27,17.23,17.23,0,0,1-7.33-14.23,17.28,17.28,0,0,1,5.19-12.23,17.67,17.67,0,0,1,12.4-5.06h.13l178.56,1.18,44.22.3,71.75.45a18,18,0,0,1,6.76,1.35,17.75,17.75,0,0,1,5.71,3.81,17.21,17.21,0,0,1,3.81,5.68A17.4,17.4,0,0,1,834.47,1062.56Z" transform="translate(-85.88 -835.29)"/></g></svg>