<svg xmlns="http://www.w3.org/2000/svg" viewBox="0 0 1305.79 804.89"><defs><style>.cls-1{fill:#020202;}</style></defs><g id="Layer_2" data-name="Layer 2"><path d="M932.35,1106.54a208.13,208.13,0,0,0-47.17-67.8C847.47,1003.59,801.1,981.37,745,965.2L606,924.68c-42.2-12.78-84.4-28.79-106.77-52.16a94.72,94.72,0,0,1-27-67.18c0-38.38,23.74-76.77,60.4-97,19.36-10.43,48.59-17.83,77.82-21.64a343.37,343.37,0,0,1,51.38-2.87c38.66,0,52.75-70.3,12-81.62a44.09,44.09,0,0,0-12-1.51c-49.59,0-119.54,6.36-170.23,32C428,663.53,379.44,730.71,379.44,802.16c0,46.94,18.36,100.19,57.19,135.61,40.94,36.2,92.68,55.39,144.43,71.4l142.43,41.72c39.94,10.44,72.28,26.66,97.07,51.17,1.47,1.36,2.9,2.76,4.27,4.22A106.49,106.49,0,0,1,855.06,1181a100.73,100.73,0,0,1-.37,10.43l92.9.63v-7.62A186.85,186.85,0,0,0,932.35,1106.54ZM660.93,1318h-7.17c-65.68-1.52-132.26-24.26-171.82-78.76a200.57,200.57,0,0,1-28.8-51.11,320.9,320.9,0,0,1-16.46-58.68l-88.47,23.16c.48,2.09,1,4.17,1.48,6.26,11.08,46.05,30.23,93.62,62.15,134.4,54.75,72.5,138.1,103.9,233.16,106.45h12.66c74.38,0,146.6-11.73,200.46-50.07a197.9,197.9,0,0,0,36.93-32.38l-226.83.26A37.81,37.81,0,0,1,660.93,1318Z" transform="translate(-347.1 -596.56)"/><path d="M1141.51,1130.34l-88.42,23.26c2.91,13,6.49,26.08,10.82,39.27l42.21.31h.25a43.16,43.16,0,0,0,26.83-9.34,42.34,42.34,0,0,0,15-23.88C1145.63,1150.31,1143.35,1140.35,1141.51,1130.34Zm448.39-90.65c-37.71-35.15-84.4-57.37-140.15-73.54l-139.11-40.52c-42.2-12.78-84.1-28.79-106.73-52.16a94.67,94.67,0,0,1-27-67.18c0-38.38,23.68-76.77,60.34-97a225.88,225.88,0,0,1,112.16-24.51,30.28,30.28,0,0,0,14.09-3.44c30.06-15.65,34.07-79.64-14.14-79.64-49.59,0-102.45,6.36-153,32a205.78,205.78,0,0,0-65.84,51.16,184.11,184.11,0,0,0-46.11,118.24c0,46.94,18.31,100.19,57.13,135.6,41,36.2,92.74,55.39,144.49,71.41l142.44,41.72c39.88,10.43,72.22,26.65,97,51.17a107.25,107.25,0,0,1,25.6,35.88,106.1,106.1,0,0,1,8.9,43,117.78,117.78,0,0,1-12.19,54.85,119.2,119.2,0,0,1-36.29,43.2c-28.06,20.18-71,33.07-112.68,37.6a294.36,294.36,0,0,1-32.92,1.83,289.12,289.12,0,0,1-33-1.83l-196.08.68c48.37,50.07,113.58,75.26,187.06,81.63,12.72,1.09,25.69,1.61,38.82,1.61,74.38,0,146.66-11.73,200.47-50.07a209.47,209.47,0,0,0,64.92-72.58,206.61,206.61,0,0,0,24.75-93.74,196.93,196.93,0,0,0-16.17-79.12,198.93,198.93,0,0,0-46.66-66.24Zm-448.39,90.65-88.42,23.26c2.91,13,6.49,26.08,10.82,39.27l42.21.31h.25a43.16,43.16,0,0,0,26.83-9.34,42.34,42.34,0,0,0,15-23.88C1145.63,1150.31,1143.35,1140.35,1141.51,1130.34Z" transform="translate(-347.1 -596.56)"/><path class="cls-1" d="M1332.74,1317.16l-196.08.68a254.86,254.86,0,0,1-19.94-23.37A329.5,329.5,0,0,1,1064,1193l42.21.31h.25a43.2,43.2,0,0,0,26.83-9.34,42.38,42.38,0,0,0,15-23.88,224.49,224.49,0,0,0,38.46,80C1221.11,1287.43,1275.92,1310.85,1332.74,1317.16Z" transform="translate(-347.1 -596.56)"/><path class="cls-1" d="M617.3,686.16A43,43,0,0,1,587,673.85a42,42,0,0,1-.19-59.89,43.06,43.06,0,0,1,30.26-12.5l733.26-4.9h.32a43,43,0,0,1,29.3,12.9,42,42,0,0,1,0,58.84,43.08,43.08,0,0,1-29.3,12.91l-733.28,5.21Z" transform="translate(-347.1 -596.56)"/><path class="cls-1" d="M1439.19,1359.15a39.74,39.74,0,0,1-11.73,28.26A40.67,40.67,0,0,1,1399,1399.2h-75.23l-670.49,2.24a40,40,0,0,1-8-.78,40.52,40.52,0,0,1-23.12-13.86,39.71,39.71,0,0,1-9.16-25.15c0-22,17.88-42.93,40.2-43h15.39l226.85-.26,241.71-.78,196.08-.68h65.95v2.19a40.59,40.59,0,0,1,28.42,11.83A39.7,39.7,0,0,1,1439.19,1359.15Z" transform="translate(-347.1 -596.56)"/><path class="cls-1" d="M1149.37,1151.3a44.32,44.32,0,0,1-1,8.82,42.43,42.43,0,0,1-15,23.88,43.23,43.23,0,0,1-26.83,9.34h-.25l-42.22-.31-116.74-.73-92.89-.63L452.92,1189l-63.3-.41a43.18,43.18,0,0,1-24.69-7.94,42,42,0,0,1-5.2-64.36,43,43,0,0,1,30.15-12.3h.32l434.32,2.87,107.56.73,174.5,1.09A43.52,43.52,0,0,1,1123,1112a43,43,0,0,1,13.9,9.25,42.25,42.25,0,0,1,12.45,30.08Z" transform="translate(-347.1 -596.56)"/></g></svg>